# xmcd
#
# Track frame offsets: 
#        150
#        17175
#        38012
#        51839
#        71806
#        92033
#        110267
#        126496
#        152708
#        174462
#        190479
#        212572
#        236894
#        259296
#        278141
#        290664
#        304851
#        325001
#
# Disc length: 4602 seconds
#
# Revision: 0
# Processed by: cddbd v1.5PL3 Copyright (c) Steve Scherf et al.
# Submitted via: ExactAudioCopy v0.95a4
#
DISCID=1111f812
DTITLE=Various Artist - Loneliness
DYEAR=2004
DGENRE=Blues
TTITLE0=古巨基 - 歡樂今宵
TTITLE1=許\志安 - 男人最痛
TTITLE2=鍾鎮濤 - 今天我非常寂寞1998
TTITLE3=鍾鎮濤 - 紅葉斜落我心寂寞時
TTITLE4=鍾鎮濤 - 我寂寞
TTITLE5=鍾鎮濤 - 讓一切隨風
TTITLE6=鍾鎮濤 - 夢裡嫣紅
TTITLE7=任賢齊 - 心太軟
TTITLE8=許\美靜 - 蠢女人
TTITLE9=彭羚 - 罷不來
TTITLE10=張惠妹 - 原來你什麼都不要
TTITLE11=張惠妹 - 站在高崗上
TTITLE12=林志美 - 偶遇
TTITLE13=林志美 - 你的眼神
TTITLE14=曾路得 - 驟雨中的陽光
TTITLE15=蘇慧倫 - Lemon Tree
TTITLE16=王菲 - 如風
TTITLE17=王菲 - 執迷不悔
EXTD=
EXTT0=
EXTT1=
EXTT2=
EXTT3=
EXTT4=
EXTT5=
EXTT6=
EXTT7=
EXTT8=
EXTT9=
EXTT10=
EXTT11=
EXTT12=
EXTT13=
EXTT14=
EXTT15=
EXTT16=
EXTT17=
PLAYORDER=
